<?xml version="1.0" encoding="utf-8"?>
<!-- Generator: Adobe Illustrator 21.1.0, SVG Export Plug-In . SVG Version: 6.00 Build 0)  -->
<svg version="1.1" id="Layer_1" xmlns="http://www.w3.org/2000/svg" xmlns:xlink="http://www.w3.org/1999/xlink" x="0px" y="0px"
	 viewBox="0 0 283 228" style="enable-background:new 0 0 283 228;" xml:space="preserve">
<style type="text/css">
	.st0{fill:#4762A3;stroke:#005B7F;stroke-width:2;stroke-miterlimit:10;}
	.st1{fill:#FFFFFF;}
	.st2{opacity:0.22;fill:#FFFFFF;}
	.st3{opacity:0.15;fill:#FFFFFF;}
</style>
<title>fbook</title>
<path class="st0" d="M279.5,108.5c-2.7-7.3-9.3-12.3-17-13c-9-1-16,6-16,6c-13,10-26-0.4-26-0.4V3.5h-173c-24.8,0.1-44.9,20.2-45,45
	v131c0.1,24.8,20.2,44.9,45,45h173v-96.3c0,0,17-8.7,26,0.3c1,2,15,10,25,3S281.5,114.5,279.5,108.5z"/>
<path class="st1" d="M161,29v30c0,0-25-1-27,2s-3-1-3,25h30l-4,28h-26v86H92v-86l-18,1V86h19V54c0,0,2-21,29-24L161,29z"/>
<path class="st2" d="M246.3,123.2c0,0,17.2,13.7,28.9-3.3c0,0,4.1-5,2.3,1.1C275.8,127.1,259.6,136.3,246.3,123.2z"/>
<path class="st3" d="M5.7,179.3c0,0,3.5,40.4,40.4,41.4c0,0,29-4.4,0-6.3c-29-1.9-37.6-40-37.6-40S7.1,159.1,5.7,179.3z"/>
</svg>
