<svg id="Layer_1" data-name="Layer 1" xmlns="http://www.w3.org/2000/svg" viewBox="0 0 283 228"><defs><style>.cls-1{fill:#fff;stroke:#000;stroke-miterlimit:10;}.cls-2{fill:#4762a3;}</style></defs><title>fbook</title><path class="cls-1" d="M279.5,108.5a20,20,0,0,0-17-13c-9-1-16,6-16,6-13,10-26-.36-26-.36V3.5H47.5a45.13,45.13,0,0,0-45,45v131a45.13,45.13,0,0,0,45,45h173V128.23s17-8.73,26,.27c1,2,15,10,25,3S281.5,114.5,279.5,108.5Z"/><path class="cls-2" d="M161,29V59s-25-1-27,2-3-1-3,25h30l-4,28H131v86H92V114l-18,1V86H93V54s2-21,29-24Z"/></svg>