<?xml version="1.0" encoding="utf-8"?>
<!-- Generator: Adobe Illustrator 21.1.0, SVG Export Plug-In . SVG Version: 6.00 Build 0)  -->
<svg version="1.1" id="Layer_1" xmlns="http://www.w3.org/2000/svg" xmlns:xlink="http://www.w3.org/1999/xlink" x="0px" y="0px"
	 viewBox="0 0 223 228" style="enable-background:new 0 0 223 228;" xml:space="preserve">
<style type="text/css">
	.st0{fill:#0098D9;stroke:#005B7F;stroke-width:2;stroke-miterlimit:10;}
	.st1{fill:#FFFFFF;}
	.st2{opacity:0.22;fill:#FFFFFF;}
	.st3{opacity:0.37;fill:#FFFFFF;}
</style>
<title>linked</title>
<path class="st0" d="M174.9,3.5H4v96.9l0.5,0.2c0,0,13,10.4,26,0.4c0,0,7-7,16-6c7.7,0.7,14.3,5.7,17,13c2,6,2,16-8,23
	c-10,7-24-1-25-3c-9-9-26-0.3-26-0.3L4,128v96.5h170.9c24.8,0,45-20.2,45.1-45v-131C219.9,23.7,199.7,3.5,174.9,3.5z"/>
<path class="st1" d="M107,55.7c0.3,4.8-1.7,9.5-5.3,12.7c-3,2.5-6.8,3.7-10.6,3.7C82.3,72,76,64.7,76,55.7C76,46.3,82.5,39,91.6,39
	c1.1,0,2.2,0.1,3.3,0.3C102.4,40.8,107,47.4,107,55.7z M79.1,175V84.7h25V175H79.1z"/>
<path class="st1" d="M147,176l-26-0.4V85.1l24-0.1v12c1.2-2.7,4.6-9.4,11.9-12.6c4-1.8,7.5-1.8,11.6-1.8c5.6-0.1,11.2,1.1,16.3,3.4
	c4.7,2.2,8.5,5.8,11.1,10.2c2.7,4.5,4,11.8,4,21.8v57.6h-16.1c-3.6,0.1-9.9,0.4-9.9,0.4v-58l-2-4c-1.9-2.9-4.7-5-8-6
	c-4.7-1.1-9.7,0.4-13,4c-2.8,3.2-2.9,7.3-3,9C147.5,127.1,146.9,147.8,147,176z"/>
<path class="st2" d="M26.5,128.1c0,0,23,22.7,38.7-5.5c0,0,5.5-8.4,3.1,1.8S44.3,149.8,26.5,128.1z"/>
<path class="st3" d="M217.2,179.4c0,0-1.9,38.7-44.8,41.9c0,0-29.6-0.7,0-6S217.2,179.4,217.2,179.4z"/>
</svg>
