<svg id="Layer_1" data-name="Layer 1" xmlns="http://www.w3.org/2000/svg" viewBox="0 0 223 228"><defs><style>.cls-1{fill:#fff;stroke:#000;stroke-miterlimit:10;}.cls-2{fill:#0098d9;}</style></defs><title>linked</title><path class="cls-1" d="M174.9,3.5H4v96.91l.5.23s13,10.36,26,.36c0,0,7-7,16-6a20,20,0,0,1,17,13c2,6,2,16-8,23s-24-1-25-3c-9-9-26-.27-26-.27L4,128V224.5H174.9a45.19,45.19,0,0,0,45.1-45V48.5A45.19,45.19,0,0,0,174.9,3.5Z"/><path class="cls-2" d="M107,55.65a15.7,15.7,0,0,1-5.3,12.7A16.11,16.11,0,0,1,91.07,72C82.26,72,76,64.73,76,55.65,76,46.27,82.54,39,91.64,39a16.71,16.71,0,0,1,3.35.33C102.42,40.85,107,47.44,107,55.65ZM79.13,175V84.65h25V175Z"/><path class="cls-2" d="M147,176l-26-.39V85.05L145,85V97c1.2-2.72,4.62-9.36,11.94-12.6,4-1.77,7.52-1.82,11.57-1.82A36.92,36.92,0,0,1,184.79,86a25.73,25.73,0,0,1,11.15,10.23q4,6.78,4,21.76v57.59H183.88c-3.63.13-9.88.39-9.88.39V118l-2-4a14.34,14.34,0,0,0-8-6,13.32,13.32,0,0,0-13,4c-2.78,3.21-2.85,7.26-3,9C147.47,127.06,146.89,147.79,147,176Z"/></svg>