<?xml version="1.0" encoding="utf-8"?>
<!-- Generator: Adobe Illustrator 21.1.0, SVG Export Plug-In . SVG Version: 6.00 Build 0)  -->
<svg version="1.1" id="Layer_1" xmlns="http://www.w3.org/2000/svg" xmlns:xlink="http://www.w3.org/1999/xlink" x="0px" y="0px"
	 viewBox="0 0 283 228" style="enable-background:new 0 0 283 228;" xml:space="preserve">
<style type="text/css">
	.st0{fill:#4762A3;}
	.st1{fill:#56ADEE;stroke:#005B7F;stroke-width:2;stroke-miterlimit:10;}
	.st2{fill:#FFFFFF;}
	.st3{opacity:0.22;fill:#FFFFFF;}
	.st4{opacity:0.36;fill:#FFFFFF;}
</style>
<title>twitter</title>
<path class="st0" d="M161,29v30c0,0-25-1-27,2s-3-1-3,25h30l-4,28h-26v86H92v-86l-18,1V86h19V54c0,0,2-21,29-24L161,29z"/>
<path class="st1" d="M278.5,110.5c-2.7-7.3-9.3-12.3-17-13c-9-1-16,6-16,6c-13,10-26-0.4-26-0.4V4.5H3.5v97.6c0,0,13,10.4,26,0.4
	c0,0,7-7,16-6c7.7,0.7,14.3,5.7,17,13c2,6,2,16-8,23s-24-1-25-3c-9-9-26-0.3-26-0.3v96.3h216v-95.3c0,0,17-8.7,26,0.3
	c1,2,15,10,25,3S280.5,116.5,278.5,110.5z"/>
<path class="st2" d="M62,45c0,0,20,28,67,32c0,0-6-13,7-27s31-10,31-10c6.5,0.9,12.5,4.1,17,9c0,0,3,2,21-7c0,0-2,10-13,16l-2,1
	c0,0,11,0,20-5c0,0-7,11-17,16c0,0,3,20-11,46s-42,38-42,38s-29,14-63,4c0,0-11-2-27-11c0,0,29,4,48-13c0,0-21,1-30-21
	c4.6,1.2,9.4,1.2,14,0h1c0,0-28-6-26-31c4.5,2.7,9.7,4,15,4C72,86,46,69,62,45z"/>
<path class="st3" d="M26,130.2c0,0,23,22.7,38.7-5.5c0,0,5.5-8.4,3.1,1.8S43.8,151.9,26,130.2z"/>
<path class="st3" d="M244.6,127.3c0,0,17.2,13.7,28.9-3.3c0,0,4.1-5,2.3,1.1C274.1,131.2,257.9,140.3,244.6,127.3z"/>
<path class="st4" d="M218.1,219.7c0,0,0.5,4.3-0.8,4.3s-6.9,0-6.9,0s7.9-0.6,7.8-8.4S218.1,219.7,218.1,219.7z"/>
</svg>
