<svg id="Layer_1" data-name="Layer 1" xmlns="http://www.w3.org/2000/svg" viewBox="0 0 283 228"><defs><style>.cls-1{fill:#4762a3;}.cls-2{fill:#fff;stroke:#000;stroke-miterlimit:10;}.cls-3{fill:#56adee;}</style></defs><title>twitter</title><path class="cls-1" d="M161,29V59s-25-1-27,2-3-1-3,25h30l-4,28H131v86H92V114l-18,1V86H93V54s2-21,29-24Z"/><path class="cls-2" d="M278.5,110.5a20,20,0,0,0-17-13c-9-1-16,6-16,6-13,10-26-.36-26-.36V4.5H3.5v97.64s13,10.36,26,.36c0,0,7-7,16-6a20,20,0,0,1,17,13c2,6,2,16-8,23s-24-1-25-3c-9-9-26-.27-26-.27V225.5h216V130.23s17-8.73,26,.27c1,2,15,10,25,3S280.5,116.5,278.5,110.5Z"/><path class="cls-3" d="M71,45s20,28,67,32c0,0-6-13,7-27s31-10,31-10a28.58,28.58,0,0,1,17,9s3,2,21-7c0,0-2,10-13,16l-2,1s11,0,20-5c0,0-7,11-17,16,0,0,3,20-11,46s-42,38-42,38-29,14-63,4c0,0-11-2-27-11,0,0,29,4,48-13,0,0-21,1-30-21a28.57,28.57,0,0,0,14,0h1s-28-6-26-31a29.15,29.15,0,0,0,15,4S55,69,71,45Z"/></svg>